<svg version="1.1" id="Layer_1" xmlns="http://www.w3.org/2000/svg" xmlns:xlink="http://www.w3.org/1999/xlink" x="0px" y="0px"
	 width="100%" viewBox="0 0 816 177" enable-background="new 0 0 816 177" xml:space="preserve">
<path fill="#FCFCFC" opacity="1.000000" stroke="none" 
	d="
M600.000000,178.000000 
	C400.000031,178.000000 200.500046,178.000000 1.000054,178.000000 
	C1.000036,119.000031 1.000036,60.000061 1.000018,1.000069 
	C272.999939,1.000046 544.999878,1.000046 816.999878,1.000023 
	C816.999878,59.999928 816.999878,118.999855 816.999939,177.999893 
	C744.833313,178.000000 672.666687,178.000000 600.000000,178.000000 
M298.505890,107.907524 
	C307.455933,77.321884 295.783966,47.340378 268.838867,32.568089 
	C251.055420,22.818542 231.947784,21.209221 212.652588,26.288427 
	C188.663818,32.603149 171.935349,47.504581 166.056747,72.133537 
	C160.149460,96.882759 166.145477,118.802620 185.630249,135.898254 
	C201.484177,149.808228 220.699341,154.003540 241.128433,151.809753 
	C268.530457,148.867142 288.373077,135.184738 298.505890,107.907524 
M708.465149,103.944733 
	C714.066956,89.998039 719.668762,76.051338 725.818970,60.739243 
	C727.628418,65.009552 728.882446,67.832985 730.030151,70.698982 
	C740.104614,95.857681 750.130798,121.035866 760.296326,146.157684 
	C760.888672,147.621552 762.539734,149.685425 763.740723,149.714600 
	C774.970520,149.987350 786.209656,149.876266 798.022095,149.876266 
	C797.099426,147.630569 796.514587,146.111008 795.857788,144.623199 
	C788.873474,128.800140 781.895874,112.974075 774.880859,97.164612 
	C764.964600,74.816742 754.964111,52.505997 745.148254,30.114214 
	C743.803955,27.047569 742.079712,25.923256 738.747498,26.009640 
	C730.258484,26.229702 721.757751,26.196508 713.266602,26.022659 
	C710.200623,25.959883 708.477905,26.863871 707.188965,29.808163 
	C692.515808,63.325058 677.703247,96.780960 662.942871,130.259705 
	C660.170715,136.547302 657.463806,142.863678 654.400940,149.917175 
	C665.508301,149.917175 675.483398,149.782181 685.451233,149.993118 
	C688.773499,150.063416 690.460205,149.111908 691.702026,145.884109 
	C697.015015,132.074326 702.636414,118.383163 708.465149,103.944733 
M123.825104,90.195129 
	C131.776031,68.028946 125.873001,47.143993 107.983467,35.367325 
	C98.412666,29.066879 87.438637,26.594437 76.192314,26.354214 
	C56.875179,25.941599 37.543888,26.188446 18.218529,26.178820 
	C17.594131,26.178509 16.969625,26.400753 16.228119,26.541462 
	C16.228119,35.622864 16.228119,44.515255 16.228119,53.852215 
	C18.330021,53.852215 20.125612,53.848995 21.921190,53.852715 
	C39.080601,53.888268 56.243546,53.726643 73.398155,54.032284 
	C84.527443,54.230572 91.397163,60.848522 91.922119,70.967400 
	C92.457977,81.296471 87.015739,87.838409 75.698952,89.198441 
	C68.462379,90.068108 61.086678,89.903336 53.771317,89.966606 
	C41.320816,90.074295 28.868708,89.996262 16.300318,89.996262 
	C16.300318,110.156265 16.300318,129.843307 16.300318,149.547928 
	C27.934586,149.547928 39.182014,149.547928 50.970772,149.547928 
	C50.970772,138.847000 50.970772,128.436630 50.970772,117.073654 
	C61.463772,117.073654 71.469093,117.696655 81.368683,116.938751 
	C99.706558,115.534805 114.574539,107.849197 123.825104,90.195129 
M391.513428,121.995956 
	C387.567322,121.995956 383.621185,121.995956 379.134277,121.995956 
	C379.134277,89.827148 379.134277,58.261173 379.134277,26.555725 
	C367.213776,26.555725 355.858612,26.555725 344.645630,26.555725 
	C344.645630,67.862465 344.645630,108.735016 344.645630,149.477646 
	C376.015961,149.477646 406.922638,149.477646 437.795013,149.477646 
	C437.795013,140.170761 437.795013,131.267853 437.795013,121.995949 
	C422.450165,121.995949 407.480103,121.995949 391.513428,121.995956 
M582.814819,40.289238 
	C571.573608,59.122868 560.332336,77.956497 548.801147,97.275864 
	C547.451538,95.172066 546.455933,93.683815 545.523438,92.157028 
	C532.854309,71.413567 520.223267,50.646698 507.471893,29.953918 
	C506.523224,28.414387 504.768829,26.364355 503.318726,26.306286 
	C494.728882,25.962294 486.118286,26.136587 476.769440,26.136587 
	C477.850220,28.418564 478.546661,30.049244 479.373383,31.610916 
	C496.979492,64.868515 515.444275,97.623528 535.162170,129.695297 
	C539.302307,136.429321 543.660217,138.787888 551.017151,138.024185 
	C554.221191,137.691574 556.485168,137.307922 558.252686,134.158356 
	C577.557434,99.759239 597.020203,65.448868 616.411133,31.098043 
	C617.171570,29.750944 617.642212,28.240292 618.544006,26.104624 
	C613.995178,26.104624 610.243469,26.692326 606.746338,25.997965 
	C594.710938,23.608320 587.259033,28.603231 582.814819,40.289238 
M620.036316,109.500000 
	C620.036316,97.999008 620.036316,86.498024 620.036316,74.997032 
	C609.943481,91.116943 601.254700,107.603462 591.619446,123.516907 
	C586.439331,132.072311 588.542542,140.682816 588.199524,149.601929 
	C599.012024,149.601929 609.254761,149.601929 620.038391,149.601929 
	C620.038391,136.378159 620.038391,123.439079 620.036316,109.500000 
M508.934052,142.456238 
	C508.447021,138.398804 509.044678,133.779343 507.284271,130.381714 
	C499.861298,116.055351 491.747742,102.086304 483.857635,88.002876 
	C481.804993,84.338989 479.646973,80.734123 477.537384,77.102150 
	C477.107910,77.209160 476.678436,77.316162 476.248962,77.423172 
	C476.248962,82.005882 476.248932,86.588593 476.248962,91.171303 
	C476.249084,109.161690 476.178528,127.152832 476.371796,145.141144 
	C476.388855,146.729492 478.081970,149.635803 479.076019,149.670715 
	C488.838379,150.013870 498.617615,149.877792 508.103394,149.877792 
	C508.528656,148.980194 508.772064,148.694870 508.786316,148.398529 
	C508.866119,146.738068 508.890564,145.074936 508.934052,142.456238 
z"/>
<path fill="#BB7259" opacity="1.000000" stroke="none" 
	d="
M298.359283,108.277420 
	C288.373077,135.184738 268.530457,148.867142 241.128433,151.809753 
	C220.699341,154.003540 201.484177,149.808228 185.630249,135.898254 
	C166.145477,118.802620 160.149460,96.882759 166.056747,72.133537 
	C171.935349,47.504581 188.663818,32.603149 212.652588,26.288427 
	C231.947784,21.209221 251.055420,22.818542 268.838867,32.568089 
	C295.783966,47.340378 307.455933,77.321884 298.359283,108.277420 
M206.645081,65.231667 
	C200.543213,73.416702 198.954529,82.696236 199.781662,92.649529 
	C201.509674,113.443787 220.077744,127.114906 240.397308,122.454826 
	C256.584839,118.742386 266.347565,105.157860 266.031555,86.785461 
	C265.776154,71.935570 257.472015,59.549770 244.640411,54.880108 
	C230.896790,49.878540 217.055420,53.489552 206.645081,65.231667 
z"/>
<path fill="#C2B59B" opacity="1.000000" stroke="none" 
	d="
M708.305298,104.296738 
	C702.636414,118.383163 697.015015,132.074326 691.702026,145.884109 
	C690.460205,149.111908 688.773499,150.063416 685.451233,149.993118 
	C675.483398,149.782181 665.508301,149.917175 654.400940,149.917175 
	C657.463806,142.863678 660.170715,136.547302 662.942871,130.259705 
	C677.703247,96.780960 692.515808,63.325058 707.188965,29.808163 
	C708.477905,26.863871 710.200623,25.959883 713.266602,26.022659 
	C721.757751,26.196508 730.258484,26.229702 738.747498,26.009640 
	C742.079712,25.923256 743.803955,27.047569 745.148254,30.114214 
	C754.964111,52.505997 764.964600,74.816742 774.880859,97.164612 
	C781.895874,112.974075 788.873474,128.800140 795.857788,144.623199 
	C796.514587,146.111008 797.099426,147.630569 798.022095,149.876266 
	C786.209656,149.876266 774.970520,149.987350 763.740723,149.714600 
	C762.539734,149.685425 760.888672,147.621552 760.296326,146.157684 
	C750.130798,121.035866 740.104614,95.857681 730.030151,70.698982 
	C728.882446,67.832985 727.628418,65.009552 725.818970,60.739243 
	C719.668762,76.051338 714.066956,89.998039 708.305298,104.296738 
z"/>
<path fill="#B85C44" opacity="1.000000" stroke="none" 
	d="
M123.648270,90.531425 
	C114.574539,107.849197 99.706558,115.534805 81.368683,116.938751 
	C71.469093,117.696655 61.463772,117.073654 50.970772,117.073654 
	C50.970772,128.436630 50.970772,138.847000 50.970772,149.547928 
	C39.182014,149.547928 27.934586,149.547928 16.300318,149.547928 
	C16.300318,129.843307 16.300318,110.156265 16.300318,89.996262 
	C28.868708,89.996262 41.320816,90.074295 53.771317,89.966606 
	C61.086678,89.903336 68.462379,90.068108 75.698952,89.198441 
	C87.015739,87.838409 92.457977,81.296471 91.922119,70.967400 
	C91.397163,60.848522 84.527443,54.230572 73.398155,54.032284 
	C56.243546,53.726643 39.080601,53.888268 21.921190,53.852715 
	C20.125612,53.848995 18.330021,53.852215 16.228119,53.852215 
	C16.228119,44.515255 16.228119,35.622864 16.228119,26.541462 
	C16.969625,26.400753 17.594131,26.178509 18.218529,26.178820 
	C37.543888,26.188446 56.875179,25.941599 76.192314,26.354214 
	C87.438637,26.594437 98.412666,29.066879 107.983467,35.367325 
	C125.873001,47.143993 131.776031,68.028946 123.648270,90.531425 
z"/>
<path fill="#BD8870" opacity="1.000000" stroke="none" 
	d="
M392.011719,121.995956 
	C407.480103,121.995949 422.450165,121.995949 437.795013,121.995949 
	C437.795013,131.267853 437.795013,140.170761 437.795013,149.477646 
	C406.922638,149.477646 376.015961,149.477646 344.645630,149.477646 
	C344.645630,108.735016 344.645630,67.862465 344.645630,26.555725 
	C355.858612,26.555725 367.213776,26.555725 379.134277,26.555725 
	C379.134277,58.261173 379.134277,89.827148 379.134277,121.995956 
	C383.621185,121.995956 387.567322,121.995956 392.011719,121.995956 
z"/>
<path fill="#C09F85" opacity="1.000000" stroke="none" 
	d="
M582.977722,39.963364 
	C587.259033,28.603231 594.710938,23.608320 606.746338,25.997965 
	C610.243469,26.692326 613.995178,26.104624 618.544006,26.104624 
	C617.642212,28.240292 617.171570,29.750944 616.411133,31.098043 
	C597.020203,65.448868 577.557434,99.759239 558.252686,134.158356 
	C556.485168,137.307922 554.221191,137.691574 551.017151,138.024185 
	C543.660217,138.787888 539.302307,136.429321 535.162170,129.695297 
	C515.444275,97.623528 496.979492,64.868515 479.373383,31.610916 
	C478.546661,30.049244 477.850220,28.418564 476.769440,26.136587 
	C486.118286,26.136587 494.728882,25.962294 503.318726,26.306286 
	C504.768829,26.364355 506.523224,28.414387 507.471893,29.953918 
	C520.223267,50.646698 532.854309,71.413567 545.523438,92.157028 
	C546.455933,93.683815 547.451538,95.172066 548.801147,97.275864 
	C560.332336,77.956497 571.573608,59.122868 582.977722,39.963364 
z"/>
<path fill="#C09F85" opacity="1.000000" stroke="none" 
	d="
M620.037354,110.000000 
	C620.038391,123.439079 620.038391,136.378159 620.038391,149.601929 
	C609.254761,149.601929 599.012024,149.601929 588.199524,149.601929 
	C588.542542,140.682816 586.439331,132.072311 591.619446,123.516907 
	C601.254700,107.603462 609.943481,91.116943 620.036316,74.997032 
	C620.036316,86.498024 620.036316,97.999008 620.037354,110.000000 
z"/>
<path fill="#C09F85" opacity="1.000000" stroke="none" 
	d="
M508.934021,142.934479 
	C508.890564,145.074936 508.866119,146.738068 508.786316,148.398529 
	C508.772064,148.694870 508.528656,148.980194 508.103394,149.877792 
	C498.617615,149.877792 488.838379,150.013870 479.076019,149.670715 
	C478.081970,149.635803 476.388855,146.729492 476.371796,145.141144 
	C476.178528,127.152832 476.249084,109.161690 476.248962,91.171303 
	C476.248932,86.588593 476.248962,82.005882 476.248962,77.423172 
	C476.678436,77.316162 477.107910,77.209160 477.537384,77.102150 
	C479.646973,80.734123 481.804993,84.338989 483.857635,88.002876 
	C491.747742,102.086304 499.861298,116.055351 507.284271,130.381714 
	C509.044678,133.779343 508.447021,138.398804 508.934021,142.934479 
z"/>
<path fill="#FCFBFB" opacity="1.000000" stroke="none" 
	d="
M206.873840,64.952408 
	C217.055420,53.489552 230.896790,49.878540 244.640411,54.880108 
	C257.472015,59.549770 265.776154,71.935570 266.031555,86.785461 
	C266.347565,105.157860 256.584839,118.742386 240.397308,122.454826 
	C220.077744,127.114906 201.509674,113.443787 199.781662,92.649529 
	C198.954529,82.696236 200.543213,73.416702 206.873840,64.952408 
z"/>
</svg>