<svg enable-background="new 0 0 128 128" viewBox="0 0 128 128" xmlns="http://www.w3.org/2000/svg" xmlns:xlink="http://www.w3.org/1999/xlink"><radialGradient id="a" cx="64" cy="4" gradientUnits="userSpaceOnUse" r="120.16"><stop offset="0" stop-color="#42a5f5"/><stop offset=".3522" stop-color="#42a5f5"/><stop offset=".6798" stop-color="#2b8be2"/><stop offset="1" stop-color="#1976d2"/></radialGradient><clipPath id="b"><circle cx="64" cy="64" r="60"/></clipPath><clipPath id="c"><circle cx="64" cy="64" r="60"/></clipPath><radialGradient id="d" cx="62.75" cy="1.5" gradientUnits="userSpaceOnUse" r="128.08"><stop offset="0" stop-color="#aeea00"/><stop offset=".2373" stop-color="#ade903"/><stop offset=".3915" stop-color="#a9e40b"/><stop offset=".522" stop-color="#a2dc1a"/><stop offset=".6386" stop-color="#98d12f"/><stop offset=".7459" stop-color="#8bc34a"/><stop offset="1" stop-color="#8bc34a"/></radialGradient><circle cx="64" cy="64" fill="url(#a)" r="60"/><g clip-path="url(#b)" fill="#424242" opacity=".2"><path d="m99.7 96.8c1.5 0 .9 5.1-.5 7-.4.5-.7.7-1 .7-.9 0-1.4-2-2-3.2-.7-1.6 2.7-4.2 2.9-4.3s.4-.2.6-.2m0-3c-.8 0-1.5.2-2.3.7-.1 0-5.9 3.9-3.9 8.1.1.2.2.5.3.8.6 1.6 1.6 4.2 4.3 4.2.9 0 2.2-.3 3.4-1.9 1.7-2.2 2.7-7.2 1.4-9.7-.6-1.4-1.8-2.2-3.2-2.2z"/><path d="m94.5 102.2c.5 0 1 .3 1.3.7 1 1.6 1.6 4.8-6.2 7.5-2.4.8-3.7 1.2-4.2 1.2-1.7 0 6.1-4.4 8.3-8.9.2-.4.5-.5.8-.5m0-3c-1.5 0-2.8.8-3.5 2.1-1 2-4 4.5-5.8 5.9-2.1 1.7-3.7 3-2.9 5.3.4 1.3 1.7 2.1 3.1 2.1.8 0 1.8-.2 5.2-1.3 4.7-1.6 7.5-3.7 8.4-6.4.7-1.8.4-3.8-.7-5.5-.8-1.4-2.3-2.2-3.8-2.2z"/><path d="m105.1 9.3-.9-2.5c-.9-2.5-3.2-4.3-5.8-4.6l-35.1-4.3-19.7-2.9c-.9-.1-1.7-.2-2.6-.2-.6 0-1.3 0-1.9.1-.1 0-.2 0-.4.1l-20.4 4.8c-2.2.5-4.4.8-6.6.8-.2 0-.4 0-.6 0l-11.2-.3v3l11.2.2h.6c2.5 0 4.9-.3 7.3-.9l20.4-4.8c.5-.1 1-.1 1.6-.1.7 0 1.5.1 2.2.2l19.7 2.9 35.2 4.3c1.5.2 2.8 1.2 3.4 2.7l.9 2.5c.4 1 0 2.1-.9 2.6l-5.1 3.4c-.4.3-.9.5-1.4.5l-3.9.6c-1.2.2-2 1.3-1.8 2.5l.2 1.4c0 .3 0 .5-.2.8l-4 5c-.3.4-.7.5-1.1.5-.7 0-1.4-.5-1.4-1.3l-.2-2c-.1-1 .2-1.9.8-2.7l6.3-7.7c.2-.2 0-.6-.3-.6h-.8c-1.9.1-3.7.7-5.1 1.9l-1.8 1.4c-1.2 1-2.7 1.5-4.3 1.5h-.2-1.1-.1c-2 0-4 .8-5.5 2.2l-2.8 2.5c-.5.4-.4 1.1.1 1.5l1.4 1.1c.9.7 1.3 1.9 1 3l-3.4 10.4c-.1.4-.5.6-.9.7l-2.9.1c-.2 0-.5.1-.6.3l-2.3 2.5c-.2.2-.3.6-.2.9l.9 3.3c.1.3 0 .7-.3 1l-1.4 1.4c-.2.2-.4.3-.7.3-.4 0-.9-.3-1-.8l-.7-3.2c0-.2-.1-.3-.2-.5l-1.5-1.8c-.2-.2-.5-.3-.7-.3s-.5.1-.6.2l-2.5 2.2c-.3.3-.4.7-.2 1.1l2 4.3c.7 1.5.7 3.2 0 4.7l-1.8 3.8c-.5 1.1-1.6 1.8-2.8 1.8h-.1l-4.8-.1h-.1c-.7 0-1.5.3-1.9.9-.9 1.2-.9 2.8 0 3.9l1.2 1.6c.7 1 .7 2.3-.1 3.2l-1.6 2c-.2.2-.5.4-.8.4s-.5-.1-.7-.3l-2-2.4c-.2-.2-.5-.3-.7-.3-.5 0-1 .4-1 1 0 .7 0 1.2-.1 1.3s2.1 2.6 3.3 4c.5.6.9 1.3 1.1 2.1l.6 2.8c.4 2 1.9 3.7 3.9 4.3l6.8 2.1c.4.1.6.6.4 1-.1.2-.3.3-.5.3-.1 0-.1 0-.1 0l-9.4-2.1c-1.2-.3-2.2-.9-3-1.8l-7.4-8.4c-.2-.3-.2-.6 0-.9l.1-.1c.1-.1.3-.2.5-.2.1 0 .2 0 .3.1l2.7 1.6c.1.1.2.1.3.1.4 0 .8-.5.6-.9l-1.5-3-.1-.2-.6-5c-.1-.6-.6-1-1.1-1-.1 0-.3 0-.4.1s-.3.1-.5.1c-.5 0-.9-.2-1.1-.7l-2.3-5.3c-.2-.4-.5-.6-.9-.6-.2 0-.4.1-.6.2l-4.1 3c-1.7 1.2-2.8 3.1-3 5.1l-.1.9c-.1.5-.3.9-.7 1.2l-1 .8c-.4.3-.8.4-1.2.4-.8 0-1.5-.5-1.8-1.3l-1.7-5.5c-.4-1.2-1-2.4-1.8-3.3l-2.8-3.2c-.6-.7-1.4-1.2-2.3-1.3l-5.3-.9c-.4-.1-.8-.2-1.2-.3v10l.4-.2c1.4-.8 2.6-2.6 1.8-5.3-.1-.3-.2-.6-.4-1l4.1.7c.2 0 .4.1.5.3l2.9 3.3c.6.7 1 1.5 1.3 2.3l1.7 5.5c.7 2 2.5 3.4 4.7 3.4 1.1 0 2.3-.4 3.1-1.2l1-.8c1-.8 1.6-2 1.7-3.2l.1-.9c.1-1.2.8-2.3 1.8-3l2.1-1.5 1.2 2.8c.6 1.3 1.7 2.1 3 2.4l.3 2.3c-.7.1-1.3.5-1.9 1l-.1.1c-1.4 1.4-1.4 3.5-.1 5l7.4 8.4c1.2 1.4 2.8 2.3 4.6 2.7l9.4 2.1c.3.1.5.1.8.1 1.2 0 2.4-.6 3-1.6.7-1 .8-2.2.4-3.3s-1.3-1.9-2.4-2.3l-6.8-2.1c-1-.3-1.7-1.1-1.9-2.1l-.5-2.7c-.2-.8-.5-1.6-.9-2.4.4-.2.8-.6 1.2-1l1.6-1.9c1.6-2 1.7-4.8.2-6.9l-1.1-1.6 4.4.1h.2c2.4 0 4.5-1.4 5.5-3.6l1.6-3.6c.7-1.6.9-3.3.7-5 .6.4 1.3.6 2.1.6 1 0 2-.4 2.8-1.1l1.4-1.4c1-1 1.4-2.5 1-3.9l-.7-2.1 1-1.1 2.1-.2c1.6-.1 3-1.2 3.5-2.7l3.4-10.3c.7-2.1.1-4.4-1.5-5.9l1-.9c1-.9 2.2-1.4 3.5-1.4h.1 1.1.3c1 0 2-.2 3-.5-.7 1.2-1 2.5-.9 3.9l.2 2c.2 2.3 2.1 4.1 4.4 4.1 1.3 0 2.6-.6 3.4-1.6l4-5c.7-.9 1-2 .8-3.1l-.1-.6 3.1-.4c.9-.1 1.8-.5 2.6-1l5.1-3.4c2.1-1.4 2.9-4 2-6.2z"/><path d="m71.7 30c.9 0 1.6.8 1.5 1.7l-.5 3.8c-.1.9.2 1.8 1 2.4.7.6.7 1.7 0 2.2-.8.7-1.7 1.4-1.9 1.7s-.3 2.3-.4 4c0 1.5-.8 2.9-2.1 3.7l-6.6 4.1c-.1.1-.2.1-.3.1-.3 0-.6-.2-.6-.6l-.2-2c0-.2.1-.4.2-.6l3.2-2.5c1.2-.9 2.1-2.1 2.7-3.4l2.3-5.2c.4-.8.6-1.7.6-2.6l.4-6.4c.1-.1.4-.4.7-.4m0-3c-1.9 0-3.5 1.5-3.6 3.4l-.4 6.4c0 .5-.2 1-.4 1.5l-2.3 5.2c-.4.9-1 1.7-1.8 2.3l-3.2 2.5c-1 .8-1.5 1.9-1.4 3.1l.2 2c.1 1.9 1.7 3.4 3.6 3.4.7 0 1.3-.2 1.9-.6l6.6-4.1c2.1-1.3 3.4-3.7 3.5-6.2 0-1.3.1-2.1.1-2.6.2-.2.6-.5 1.1-.9 1-.8 1.6-2.1 1.6-3.5 0-1.3-.5-2.5-1.5-3.3l.5-3.6c.2-1.3-.2-2.6-1-3.5-.8-1-2-1.6-3.3-1.6 0 .1-.2.1-.2.1z"/><path d="m56.2 56.9c.3 0 .6.2.6.5l.2 1.2c.1.6 0 1.2-.4 1.8-.3.5-.5 1-.4 1.6l.1.7h-.7l-.9-1.7c-.4-.7-.5-1.5-.1-2.2l.8-1.5c.1-.2.3-.3.6-.3zm0-3h-.3c-1.3 0-2.6.7-3.2 1.9l-.7 1.5c-.9 1.6-.8 3.6.2 5.2l1.1 1.7c.5.9 1.5 1.4 2.5 1.4h.7c.9 0 1.7-.4 2.2-1s.8-1.5.7-2.3v-.4c.7-1.1 1-2.5.7-3.8l-.2-1.2c-.5-1.7-2-3-3.7-3z"/><path d="m52.1 73.9c.2 0 .3 0 .5.1.6.2 1 .8 1 1.4v1.8.3l-1.1 4.4c-.2.8-1 1.4-1.8 1.4-.1 0-.3 0-.4-.1l-4.2-1c-.5-.1-.8-.4-1-.9l-.8-1.9c-.3-.7 0-1.5.7-1.9l6.5-3.6c.1.1.3 0 .6 0m0-3c-.8 0-1.5.2-2.2.6l-6.5 3.6c-2 1.1-2.9 3.6-2 5.7l.8 1.9c.6 1.3 1.7 2.3 3.1 2.6l4.2 1c.4.1.7.1 1.1.1 2.2 0 4.2-1.5 4.7-3.7l1.1-4.4c.1-.3.1-.7.1-1.1v-1.8c0-1.9-1.2-3.6-3-4.2-.5-.2-.9-.3-1.4-.3z"/><path d="m66.1 80c.4 0 .7.1 1.1.2l7.5 3.5c.8.4 1.4 1.1 1.7 1.9l1 2.8-.2 1-2.7-2.4c-.4-.3-.9-.5-1.4-.5s-1 .2-1.4.6c-.1.1-.2.2-.4.2l-2.3.1c-.1 0-.2 0-.2 0-.9 0-1.8-.4-2.4-1.1l-3.3-3.8c-.7-.8-.2-2.1.8-2.2l1.8-.3zm0-3c-.3 0-.6 0-.8.1l-1.8.3c-1.6.2-2.9 1.3-3.4 2.8s-.2 3.2.8 4.4l3.3 3.8c1.2 1.3 2.9 2.1 4.7 2.1h.5l2.2-.2c.6 0 1.1-.2 1.6-.5l2.1 1.9c.6.5 1.3.8 2 .8.3 0 .7-.1 1-.2 1-.3 1.8-1.2 2-2.3l.2-1c.1-.5.1-1.1-.1-1.6l-1-2.8c-.6-1.6-1.8-2.9-3.3-3.6l-7.5-3.5c-.9-.3-1.7-.5-2.5-.5z"/><path d="m61.7 89.1h.4l3.4.4c.4.1.7.4.6.8l-.5 2.2c-.1.3.1.7.5.8l2.3.6c.1 0 .3.1.4.1.9 0 1.6-.7 1.6-1.7l-.1-1.8c0-.4.3-.7.6-.7h.4c.2 0 .5.2.6.4l.4 1c1 2.2 2.3 4.3 4.1 6l3.3 3.3c.8.8 1.1 1.8.9 2.9l-1.9 9c-.2.8-.7 1.6-1.4 2.1l-1.2.8c-.7.5-1.5.7-2.3.7-.4 0-.9-.1-1.3-.2l-1.9-.7c-1.2-.4-2.3-1.3-2.9-2.4l-.4-.7c-.2-.3-.5-.5-.9-.5-.3 0-.5.1-.7.3s-.5.3-.7.3-.5-.1-.7-.2l-1.5-1.2c-.7-.5-1.5-.8-2.3-.8-.4 0-.7.1-1.1.2l-5.6 1.7c-.5.2-1 .2-1.5.2-1.1 0-2.2-.3-3-1l-1.4-1.1c-.5-.4-.6-1.1-.2-1.6.2-.2.2-.6.2-.9l-1.3-7.2c-.2-1.2.5-2.3 1.6-2.7l3.8-1.3c.8-.3 1.6-.8 2.2-1.4l4.9-4.8c.7-.5 1.7-.9 2.6-.9m0-3c-1.8 0-3.4.7-4.7 1.9l-4.9 4.8c-.3.3-.7.5-1.1.7l-3.8 1.3c-2.5.9-4 3.5-3.6 6.1l1.2 6.5c-.8 1.7-.3 3.8 1.3 5l1.4 1.1c1.4 1.1 3.1 1.6 4.8 1.6.8 0 1.6-.1 2.4-.4l5.6-1.7h.2c.1 0 .3.1.4.1l1.5 1.2c.7.6 1.6.9 2.5.9.2 0 .5 0 .7-.1 1 1.3 2.3 2.4 3.9 2.9l1.9.7c.7.3 1.5.4 2.3.4 1.4 0 2.8-.4 4-1.2l1.2-.8c1.4-.9 2.3-2.3 2.6-4l1.9-9c.4-2.1-.2-4.2-1.7-5.6l-3.1-3.5c-1.5-1.5-2.6-3.2-3.4-5.1l-.4-1c-.6-1.3-1.8-2.1-3.2-2.2h-.4-.2c-1 0-1.9.4-2.6 1.1-.6-.7-1.4-1.2-2.4-1.3l-3.4-.4c-.3 0-.6 0-.9 0z"/></g><g clip-path="url(#c)" fill="url(#d)"><path d="m99.1 97.1c-.2.1-3.6 2.7-2.9 4.3s1.4 4.6 3 2.5 2.1-8.3-.1-6.8z"/><path d="m93.7 102.6c.4-.8 1.7-.5 2.1.3 1 1.6 1.6 4.8-6.2 7.5-10.9 3.7 1.2-1.9 4.1-7.8z"/><path d="m102.4 10.3-.9-2.5c-.5-1.5-1.8-2.5-3.4-2.7l-35.2-4.2-19.7-2.9c-1.2-.2-2.5-.2-3.8-.1l-20.4 4.8c-2.6.6-5.3.9-7.9.9l-11.2-.2v53c.4.1.8.2 1.2.3l5.3.9c.9.1 1.7.6 2.3 1.3l2.8 3.2c.8 1 1.5 2.1 1.8 3.3l1.7 5.5c.4 1.3 2 1.7 3 .9l1-.8c.4-.3.6-.8.7-1.2l.1-.9c.2-2.1 1.3-3.9 3-5.1l4.1-3c.5-.4 1.2-.2 1.5.4l2.3 5.1c.3.6 1 .8 1.6.6.7-.2 1.4.2 1.5.9l.6 5 .1.2 1.5 3c.3.6-.4 1.2-.9.8l-2.7-1.6c-.2-.1-.6-.1-.8.1l-.1.1c-.2.2-.2.6 0 .9l7.4 8.4c.8.9 1.9 1.5 3 1.8l9.4 2.1c.3.1.5 0 .7-.3.2-.4.1-.9-.3-1l-6.8-2.1c-2-.6-3.5-2.3-3.9-4.3l-.9-2.9c-.2-.8-.5-1.5-1.1-2.1-1.2-1.4-3.4-3.9-3.3-4 0 0 .1-.6.1-1.3 0-.9 1.1-1.3 1.7-.6l1.9 2.2c.4.5 1.1.4 1.5 0l1.6-1.9c.8-.9.8-2.2.1-3.2l-1.1-1.6c-.8-1.2-.8-2.8 0-3.9.5-.6 1.2-.9 2-.9l4.8.1c1.2 0 2.4-.7 2.9-1.8l1.7-3.6c.7-1.5.7-3.2 0-4.7l-2-4.3c-.2-.4-.1-.8.2-1.1l2.5-2.2c.4-.3 1-.3 1.4.1l1.5 1.7c.1.1.2.3.2.5l.7 3.2c.2.8 1.1 1 1.6.5l1.4-1.4c.2-.2.4-.6.3-.9l-.9-3.3c-.1-.3 0-.7.2-.9l2.3-2.5c.2-.2.4-.3.6-.3l2.9-.2c.4 0 .7-.3.9-.7l3.4-10.4c.4-1.1 0-2.3-1-3l-1.4-1.1c-.5-.4-.5-1.1-.1-1.5l2.8-2.5c1.6-1.4 3.6-2.2 5.8-2.1h1.1c1.6 0 3.2-.5 4.5-1.5l1.8-1.4c1.5-1.2 3.3-1.8 5.1-1.9h.8c.3 0 .5.3.3.6l-6.3 7.7c-.6.8-.9 1.7-.8 2.7l.2 2c.1 1.3 1.7 1.8 2.5.8l4-5c.2-.2.2-.5.2-.8l-.2-1.4c-.2-1.2.6-2.3 1.8-2.5l3.9-.6c.5-.1 1-.2 1.4-.5l5.1-3.4c.8-.7 1.1-1.8.8-2.8z"/><path d="m71.1 30.6-.4 6.4c-.1.9-.3 1.8-.6 2.6l-2.3 5.2c-.6 1.3-1.5 2.5-2.7 3.4l-3.2 2.5c-.2.1-.3.3-.2.6l.2 2c0 .5.6.8 1 .5l6.6-4.1c1.3-.8 2.1-2.2 2.1-3.7 0-1.7.1-3.7.4-4 .2-.3 1.1-1 1.9-1.7.7-.6.7-1.7 0-2.2-.7-.6-1.1-1.5-1-2.4l.5-3.8c.1-.9-.6-1.7-1.4-1.7-.6-.2-.9.1-.9.4z"/><path d="m56.2 56.9h-.3c-.2 0-.5.1-.6.3l-.8 1.5c-.4.7-.3 1.5.1 2.2l1.1 1.7h.7v-.6c-.1-.5.1-1.1.4-1.6.4-.5.5-1.1.4-1.8l-.2-1.2c-.2-.3-.5-.5-.8-.5z"/><path d="m44.2 79.6.8 1.9c.2.4.6.8 1 .9l4.2 1c1 .2 2-.4 2.2-1.4l1.1-4.4c0-.1 0-.2 0-.3v-1.8c0-.6-.4-1.2-1-1.4-.4-.1-.8-.1-1.2.1l-6.5 3.6c-.6.3-.9 1.1-.6 1.8z"/><path d="m69.1 87.4 2.2-.2c.2 0 .3-.1.4-.2.8-.8 2-.8 2.8-.1l2.7 2.4.2-1-1-2.8c-.3-.8-.9-1.5-1.7-1.9l-7.5-3.5c-.5-.2-1-.3-1.5-.2l-1.8.3c-1 .2-1.5 1.4-.8 2.2l3.3 3.8c.7.9 1.7 1.3 2.7 1.2z"/><path d="m71.4 89.8h-.4c-.4 0-.7.3-.7.7l.1 1.8c.1 1.1-.9 1.9-2 1.6l-2.4-.6c-.3-.1-.6-.4-.5-.8l.5-2.2c.1-.4-.2-.8-.6-.8l-3.4-.4c-1.1-.1-2.2.2-3 1l-4.9 4.8c-.6.6-1.4 1.1-2.2 1.4l-3.8 1.3c-1.1.4-1.8 1.5-1.6 2.7l1.3 7.2c.1.3 0 .6-.2.9-.4.5-.3 1.2.2 1.6l1.4 1.1c1.3 1 3 1.3 4.5.8l5.6-1.7c1.2-.4 2.4-.1 3.3.7l1.4 1.2c.4.3 1 .3 1.4-.1.5-.5 1.3-.4 1.6.2l.4.7c.6 1.2 1.7 2 2.9 2.4l1.9.7c1.2.4 2.6.2 3.6-.5l1.2-.8c.7-.5 1.2-1.2 1.4-2.1l1.9-9c.2-1.1-.1-2.1-.9-2.9l-3.3-3.3c-1.7-1.7-3.1-3.8-4.1-6l-.4-1c.2-.4 0-.6-.2-.6z"/></g><path d="m64 7c31.4 0 57 25.6 57 57s-25.6 57-57 57-57-25.6-57-57 25.6-57 57-57m0-3c-33.1 0-60 26.9-60 60s26.9 60 60 60 60-26.9 60-60-26.9-60-60-60z" fill="#424242" opacity=".2"/></svg>